<?xml version="1.0" standalone="no"?>
  <svg version="1.1"
      baseProfile="full"
     width="889px"
      height="964px"
     
      xmlns="http://www.w3.org/2000/svg"
      >
      <g xmlns="http://www.w3.org/2000/svg" xmlns:xlink="http://www.w3.org/1999/xlink">
      <g transform="rotate(180.03977480888884 628.5033161543922 508.23014710130815)"><svg id="1618571684252" opacity="1" fill="rgb(236, 239, 244)" viewBox="3.5999999046325684 -57.599998474121094 30.96000099182129 55.79999923706055" width="382.0066323087845" preserveAspectRatio="none" height="688.5002942026163" x="437.5" y="163.98"><path id="textPath" d="M34.56-1.80L34.56-51.41L33.48-52.49C31.68-54.29 29.59-55.58 27.36-56.45L27.36-39.38L10.80-39.38C10.58-42.26 11.59-45.22 13.75-47.38C15.55-49.18 17.78-50.18 20.16-50.33L20.16-57.60C15.98-57.38 11.88-55.66 8.64-52.49C5.26-49.03 3.60-44.57 3.60-40.10C3.60-38.66 3.74-37.22 4.10-35.78C4.82-32.76 6.41-29.95 8.64-27.72L20.16-16.20L20.16-26.35L14.33-32.18L27.36-32.18L27.36-9.00Z" style="pointer-events: bounding-box; cursor: move;"></path></svg></g><g transform="rotate(0 235.50005199656448 424.22356666010955)"><svg id="1618571643500" opacity="1" fill="rgb(216, 222, 233)" viewBox="3.5999999046325684 -57.599998474121094 30.96000099182129 55.79999923706055" width="374.52010399312894" preserveAspectRatio="none" height="675.0071333202192" x="48.24" y="86.72"><path id="textPath" d="M34.56-1.80L34.56-28.58C34.56-32.54 31.39-35.78 27.36-35.78C31.32-35.78 34.56-39.02 34.56-42.98L34.56-48.17C34.56-50.47 33.62-52.49 31.82-53.86C28.73-56.30 25.42-57.60 20.95-57.60C16.56-57.60 12.10-55.87 8.71-52.49C5.33-49.10 3.60-44.64 3.60-40.18C3.60-35.50 5.33-31.03 8.71-27.72ZM10.80-39.38C10.58-42.26 11.59-45.22 13.75-47.38C15.77-49.39 18.43-50.40 21.10-50.40C23.33-50.40 25.49-49.68 27.36-48.31L27.36-39.38ZM27.36-19.15C22.90-23.69 18.86-27.65 14.33-32.18L27.36-32.18Z" style="pointer-events: bounding-box; cursor: move;"></path></svg></g>
      </g>
  </svg>